<?xml version="1.0" encoding="UTF-8"?>
<svg width="63px" height="63px" viewBox="0 0 63 63" version="1.1" xmlns="http://www.w3.org/2000/svg" xmlns:xlink="http://www.w3.org/1999/xlink">
    <title>Icon / Categorias 32px / Disponible 2</title>
    <defs>
        <path d="M31.5,10.828125 C42.9170616,10.828125 52.171875,20.0829384 52.171875,31.5 C52.171875,42.9157575 42.9163969,52.171875 31.5,52.171875 C20.0849072,52.171875 10.828125,42.9150928 10.828125,31.5 C10.828125,20.0836031 20.0842425,10.828125 31.5,10.828125 Z M31.36875,18.703125 C30.8250947,18.703125 30.384375,19.1438447 30.384375,19.6875 L30.384375,19.6875 L30.3841673,21.6336751 C27.1872739,21.9183795 24.6729,23.6119597 24.6729,26.6175 C24.6729,29.7283605 26.4312273,30.9182388 31.0818067,32.4139055 L31.0818067,32.4139055 L31.2197829,32.4582671 C34.9909681,33.6707461 36.124725,34.4204136 36.124725,36.1433625 C36.124725,37.7463689 34.2829212,39.1552875 31.36875,39.1552875 C29.5777691,39.1552875 28.2877798,38.68507 27.3847844,37.9161307 C26.8717314,37.4792441 26.5994971,37.0612722 26.5109052,36.8340051 C26.3134525,36.3274743 25.742761,36.076917 25.2362301,36.2743698 C24.7296993,36.4718225 24.479142,37.042514 24.6765948,37.5490449 C24.8753092,38.0588122 25.3231451,38.7463919 26.1083844,39.4150568 C27.1791702,40.3268769 28.5977099,40.922557 30.3832745,41.081411 L30.3832745,41.081411 L30.384375,42.9515625 C30.384375,43.4952178 30.8250947,43.9359375 31.36875,43.9359375 C31.9124053,43.9359375 32.353125,43.4952178 32.353125,42.9515625 L32.353125,42.9515625 L32.3536627,41.0768313 C35.7382715,40.7468331 38.093475,38.722697 38.093475,36.1433625 C38.093475,33.1709931 36.4133548,32.0600571 31.8223791,30.5840061 L31.8223791,30.5840061 L31.6845683,30.5396976 C27.8367416,29.3022032 26.64165,28.4934723 26.64165,26.6175 C26.64165,24.6992751 28.6619978,23.559375 31.36875,23.559375 C32.8791407,23.559375 34.1502695,23.9455889 35.1989851,24.5870631 C35.8133664,24.9628655 36.2076325,25.3270104 36.377574,25.537686 C36.7189059,25.9608333 37.3386387,26.0271578 37.761786,25.685826 C38.1849333,25.3444941 38.2512578,24.7247613 37.909926,24.301614 C37.6070394,23.9261271 37.0493328,23.4110282 36.2262805,22.9075869 C35.1197392,22.230742 33.8271599,21.7772004 32.3543812,21.6368395 L32.3543812,21.6368395 L32.353125,19.6875 C32.353125,19.1438447 31.9124053,18.703125 31.36875,18.703125 Z" id="path-1"></path>
    </defs>
    <g id="Page-1" stroke="none" stroke-width="1" fill="none" fill-rule="evenodd">
        <g id="Préstamos" transform="translate(-30.000000, -1062.000000)">
            <g id="Icon-/-Categorias-32px-/-Disponible" transform="translate(30.000000, 1062.000000)">
                <rect id="Rectangle-10-Copy-18" fill="#EFF4FF" x="0" y="0" width="63" height="63" rx="10"></rect>
                <mask id="mask-2" fill="white">
                    <use xlink:href="#path-1"></use>
                </mask>
                <use id="Combined-Shape" fill="#797979" fill-rule="nonzero" xlink:href="#path-1"></use>
                <g id="Group" mask="url(#mask-2)">
                    <g transform="translate(7.875000, 7.875000)" id="Color-/-Ualá-Azul">
                        <polygon id="#3E6BFD" fill="#668AFD" points="0 0 47.25 0 47.25 47.25 0 47.25"></polygon>
                    </g>
                </g>
            </g>
        </g>
    </g>
</svg>