<?xml version="1.0" encoding="UTF-8"?>
<svg width="50px" height="50px" viewBox="0 0 50 50" version="1.1" xmlns="http://www.w3.org/2000/svg" xmlns:xlink="http://www.w3.org/1999/xlink">
    <title>Group 7</title>
    <defs>
        <filter id="filter-1">
            <feColorMatrix in="SourceGraphic" type="matrix" values="0 0 0 0 0.780392 0 0 0 0 0.831373 0 0 0 0 1.000000 0 0 0 1.000000 0"></feColorMatrix>
        </filter>
        <polygon id="path-2" points="0 0 50 0 50 50 0 50"></polygon>
        <polygon id="path-4" points="0 0 29.5454545 0 29.5454545 28.4090909 0 28.4090909"></polygon>
    </defs>
    <g id="Welcome" stroke="none" stroke-width="1" fill="none" fill-rule="evenodd">
        <g id="Home---Desktop--Copy" transform="translate(-179.000000, -1101.000000)">
            <g id="Group-7" transform="translate(179.000000, 1101.000000)">
                <g filter="url(#filter-1)" id="Group-3">
                    <g>
                        <mask id="mask-3" fill="white">
                            <use xlink:href="#path-2"></use>
                        </mask>
                        <g id="Clip-2"></g>
                        <path d="M40.4558487,50 L9.54415128,50 C4.27297738,50 0,45.7270226 0,40.4558487 L0,9.54415128 C0,4.27321913 4.27297738,0 9.54415128,0 L40.4558487,0 C45.7270226,0 50,4.27321913 50,9.54415128 L50,40.4558487 C50,45.7270226 45.7270226,50 40.4558487,50" id="Fill-1" fill="#3E6BFD" mask="url(#mask-3)"></path>
                    </g>
                </g>
                <g id="Group-3" transform="translate(10.227273, 11.363636)">
                    <mask id="mask-5" fill="white">
                        <use xlink:href="#path-4"></use>
                    </mask>
                    <g id="Clip-2"></g>
                    <path d="M4.67263659,26.5857934 L8.43391521,26.5857934 L8.43391521,13.1761239 L4.67263659,13.1761239 L4.67263659,26.5857934 Z M2.09952392,8.37036741 L14.7685332,1.93526672 L27.4457039,8.50893802 L27.4457039,11.3528263 L2.09952392,11.3528263 L2.09952392,8.37036741 Z M15.6794378,26.5857934 L19.4407164,26.5857934 L19.4407164,13.1761239 L15.6794378,13.1761239 L15.6794378,26.5857934 Z M10.2475629,26.5857934 L13.8657901,26.5857934 L13.8657901,13.1761239 L10.2475629,13.1761239 L10.2475629,26.5857934 Z M21.2545908,26.5857934 L24.872818,26.5857934 L24.872818,13.1761239 L21.2545908,13.1761239 L21.2545908,26.5857934 Z M28.6386307,26.5857934 L26.6864657,26.5857934 L26.6864657,13.1761239 L28.3525278,13.1761239 C28.8533212,13.1761239 29.2593516,12.7679331 29.2593516,12.2644751 L29.2593516,7.9532881 C29.2593516,7.61210355 29.0700521,7.29940802 28.7683065,7.14306026 L15.1883927,0.101485233 C14.9297212,-0.0327550473 14.622988,-0.0336666961 14.3636364,0.0978386377 L0.783949218,6.99582899 C0.478349581,7.15103719 0.285876219,7.46555601 0.285876219,7.80947551 L0.285876219,12.2644751 C0.285876219,12.7679331 0.691906597,13.1761239 1.19270007,13.1761239 L2.85898889,13.1761239 L2.85898889,26.5857934 L0.906823849,26.5857934 C0.406030379,26.5857934 0,26.9939841 0,27.4974421 C0,28.0009002 0.406030379,28.4090909 0.906823849,28.4090909 L28.6386307,28.4090909 C29.1394242,28.4090909 29.5454545,28.0009002 29.5454545,27.4974421 C29.5454545,26.9939841 29.1394242,26.5857934 28.6386307,26.5857934 L28.6386307,26.5857934 Z" id="Fill-1" fill="#668AFF" mask="url(#mask-5)"></path>
                </g>
            </g>
        </g>
    </g>
</svg>