<?xml version="1.0" encoding="UTF-8"?>
<svg width="42px" height="42px" viewBox="0 0 42 42" version="1.1" xmlns="http://www.w3.org/2000/svg" xmlns:xlink="http://www.w3.org/1999/xlink">
    <title>Icon / Categorias 32px / Entretenimiento</title>
    <defs>
        <linearGradient x1="50%" y1="152.115632%" x2="50%" y2="1.66533454e-14%" id="linearGradient-1">
            <stop stop-color="#AC98FF" offset="0%"></stop>
            <stop stop-color="#7E5FFC" offset="100%"></stop>
        </linearGradient>
        <linearGradient x1="50%" y1="100%" x2="50%" y2="0%" id="linearGradient-2">
            <stop stop-color="#C6BAFC" offset="0%"></stop>
            <stop stop-color="#8E73FD" offset="100%"></stop>
        </linearGradient>
    </defs>
    <g id="Page-1" stroke="none" stroke-width="1" fill="none" fill-rule="evenodd">
        <g id="Análisis-de-Gastos---Desktop-" transform="translate(-351.000000, -1247.000000)">
            <g id="Icon-/-Categorias-32px-/-Entretenimiento" transform="translate(351.000000, 1247.000000)">
                <g id="COLOR-/-CATEGORIA-/-COMIDA">
                    <path d="M10,0 L32,0 C37.5228475,-1.01453063e-15 42,4.4771525 42,10 L42,32 C42,37.5228475 37.5228475,42 32,42 L10,42 C4.4771525,42 6.76353751e-16,37.5228475 0,32 L0,10 C-6.76353751e-16,4.4771525 4.4771525,1.01453063e-15 10,0 Z" id="Rectangle-10-Copy-13" fill="url(#linearGradient-1)"></path>
                    <path d="M10,0 L32,0 C37.5228475,-1.01453063e-15 42,4.4771525 42,10 L42,32 C42,37.5228475 37.5228475,42 32,42 L10,42 C4.4771525,42 6.76353751e-16,37.5228475 0,32 L0,10 C-6.76353751e-16,4.4771525 4.4771525,1.01453063e-15 10,0 Z" id="Rectangle-10-Copy-13" fill="url(#linearGradient-2)"></path>
                </g>
                <path d="M16.6390016,10.9731616 C17.2987374,10.5878364 18.1453156,10.8163626 18.5272678,11.4835925 L18.5272678,11.4835925 L27.955371,27.9591672 C28.3373233,28.6263971 28.1107975,29.4787833 27.4477548,29.8641086 L27.4477548,29.8641086 C26.9632872,30.1476813 26.3382744,30.142677 25.9215992,29.7723644 C25.0948627,29.0350754 23.8613718,28.8766083 22.8527533,29.4637706 C21.8424812,30.0509329 21.3646275,31.2085768 21.582886,32.2994977 C21.6936687,32.8482943 21.3844692,33.398759 20.9033086,33.6773275 L20.9033086,33.6773275 L20.6900105,33.8024331 C20.0286213,34.1877584 19.1820431,33.9592321 18.8017444,33.2903342 L18.8017444,33.2903342 L9.3719877,16.8164276 C8.99168891,16.1491977 9.21821471,15.2951434 9.87795045,14.9098181 L9.87795045,14.9098181 L9.98707967,14.8464313 C10.4682403,14.5661947 11.0932531,14.571199 11.5082748,14.9415116 C12.3366648,15.6788006 13.5701557,15.8389358 14.5787743,15.2501054 C15.5873928,14.6629431 16.0685534,13.5052992 15.8486415,12.4143783 C15.7395123,11.8655817 16.0470583,11.316785 16.5282189,11.0365485 L16.5282189,11.0365485 Z M24.1770198,9.85671919 C24.5457443,9.21617848 25.3642134,8.9959926 26.0008005,9.36964136 L26.0008005,9.36964136 L26.0239492,9.38131788 C26.4885751,9.65321407 26.7762794,10.1819938 26.6787245,10.7157777 C26.495189,11.7132864 26.9399732,12.7641735 27.8593042,13.3012936 C28.7802887,13.8367456 29.9046504,13.6999635 30.6702084,13.041074 C31.0786162,12.6891102 31.6771734,12.6757656 32.1417994,12.9459937 C32.7899608,13.3229786 33.0049123,14.1603521 32.6246135,14.8092332 L32.6246135,14.8092332 L27.3847575,23.6967357 L21.8588506,13.8484221 Z" id="Combined-Shape" fill="#FFFFFF"></path>
            </g>
        </g>
    </g>
</svg>