<?xml version="1.0" encoding="UTF-8"?>
<svg width="42px" height="42px" viewBox="0 0 42 42" version="1.1" xmlns="http://www.w3.org/2000/svg" xmlns:xlink="http://www.w3.org/1999/xlink">
    <title>Icon / Categorias 32px / Restaurantes y bares</title>
    <defs>
        <linearGradient x1="50%" y1="0.621483356%" x2="50%" y2="100%" id="linearGradient-1">
            <stop stop-color="#E67C89" offset="0%"></stop>
            <stop stop-color="#EEA4B2" offset="100%"></stop>
        </linearGradient>
        <linearGradient x1="50%" y1="0.621483356%" x2="50%" y2="97.9827202%" id="linearGradient-2">
            <stop stop-color="#FF6D7F" offset="0%"></stop>
            <stop stop-color="#FFA1B3" offset="100%"></stop>
        </linearGradient>
    </defs>
    <g id="Page-1" stroke="none" stroke-width="1" fill="none" fill-rule="evenodd">
        <g id="Análisis-de-Gastos---Desktop-" transform="translate(-605.000000, -1247.000000)">
            <g id="Icon-/-Categorias-32px-/-Restaurantes-y-bares" transform="translate(605.000000, 1247.000000)">
                <g id="COLOR-/-CATEGORIA-/-COMIDA">
                    <path d="M10,0 L32,0 C37.5228475,-1.01453063e-15 42,4.4771525 42,10 L42,32 C42,37.5228475 37.5228475,42 32,42 L10,42 C4.4771525,42 6.76353751e-16,37.5228475 0,32 L0,10 C-6.76353751e-16,4.4771525 4.4771525,1.01453063e-15 10,0 Z" id="Rectangle-10-Copy-13" fill="url(#linearGradient-1)"></path>
                    <path d="M10,0 L32,0 C37.5228475,-1.01453063e-15 42,4.4771525 42,10 L42,32 C42,37.5228475 37.5228475,42 32,42 L10,42 C4.4771525,42 6.76353751e-16,37.5228475 0,32 L0,10 C-6.76353751e-16,4.4771525 4.4771525,1.01453063e-15 10,0 Z" id="Rectangle-10-Copy-13" fill="url(#linearGradient-2)"></path>
                </g>
                <path d="M20.7138046,10.5009188 C21.3232523,10.5009188 21.816323,10.9939895 21.816323,11.6034371 L21.816323,16.5418007 C21.816323,18.8080885 20.3095479,20.7221829 18.2438572,21.3377556 L18.2438572,30.5590968 C18.2438572,31.321672 17.603784,31.9387761 16.8136459,31.9387761 C16.025039,31.9387761 15.3849658,31.321672 15.3849658,30.5590968 L15.3849658,21.3377556 C13.3192751,20.7221829 11.8125,18.8080885 11.8125,16.5418007 L11.8125,11.5467799 C11.8125,10.9694891 12.279539,10.5009188 12.8583612,10.5009188 C13.4356521,10.5009188 13.9042224,10.9694891 13.9042224,11.5467799 L13.9042224,15.915509 C13.9042224,16.4468616 14.3345108,16.8786813 14.8673947,16.8786813 C15.3987473,16.8786813 15.830567,16.4468616 15.830567,15.915509 L15.830567,11.4839976 C15.830567,10.9403948 16.270043,10.5009188 16.8121146,10.5009188 C17.3557174,10.5009188 17.7967247,10.9403948 17.7967247,11.4839976 L17.7967247,15.9706349 C17.7967247,16.471362 18.2025128,16.8786813 18.7047711,16.8786813 C19.2054982,16.8786813 19.6128175,16.471362 19.6128175,15.9706349 L19.6128175,11.6034371 C19.6128175,10.9939895 20.1058882,10.5009188 20.7138046,10.5009188 Z M28.9976989,10.5 C29.6530848,10.5 30.1875,11.0344152 30.1875,11.6913324 L30.1875,11.6913324 L30.1875,30.5597093 C30.1875,31.3345347 29.6775853,31.9378573 28.7695389,31.9378573 C27.8614925,31.9378573 27.3515777,31.2166265 27.3515777,30.5597093 L27.3515777,30.5597093 L27.3515777,25.0991808 C25.5921422,25.0991808 24.3487464,23.910911 24.3487464,22.5695137 L24.3487464,22.5695137 L24.3487464,13.4431116 C24.3487464,11.9960562 25.1220406,10.5 27.2688889,10.5 L27.2688889,10.5 Z" id="Combined-Shape" fill="#FFFFFF"></path>
            </g>
        </g>
    </g>
</svg>