<?xml version="1.0" encoding="UTF-8"?>
<svg width="42px" height="42px" viewBox="0 0 42 42" version="1.1" xmlns="http://www.w3.org/2000/svg" xmlns:xlink="http://www.w3.org/1999/xlink">
    <title>Icon / Categorias 32px / Transporte</title>
    <defs>
        <linearGradient x1="50%" y1="3.63683077e-14%" x2="50%" y2="100%" id="linearGradient-1">
            <stop stop-color="#62BCE7" offset="0%"></stop>
            <stop stop-color="#B2DAED" offset="100%"></stop>
        </linearGradient>
    </defs>
    <g id="Page-1" stroke="none" stroke-width="1" fill="none" fill-rule="evenodd">
        <g id="Análisis-de-Gastos---Desktop-" transform="translate(-478.000000, -1247.000000)">
            <g id="Icon-/-Categorias-32px-/-Transporte" transform="translate(478.000000, 1247.000000)">
                <g id="COLOR-/-CATEGORIA-/-COMIDA" fill="url(#linearGradient-1)">
                    <path d="M10,0 L32,0 C37.5228475,-1.01453063e-15 42,4.4771525 42,10 L42,32 C42,37.5228475 37.5228475,42 32,42 L10,42 C4.4771525,42 6.76353751e-16,37.5228475 0,32 L0,10 C-6.76353751e-16,4.4771525 4.4771525,1.01453063e-15 10,0 Z" id="Rectangle-10-Copy-13"></path>
                </g>
                <path d="M27,27.15 C26.1705,27.15 25.5,26.484 25.5,25.662 C25.5,24.84 26.1705,24.1755 27,24.1755 C27.828,24.1755 28.5,24.84 28.5,25.662 C28.5,26.484 27.828,27.15 27,27.15 L27,27.15 Z M24.1815,26.4285 L18,26.4315 L18,24.9435 L24.1815,24.9405 L24.1815,26.4285 Z M13.5,25.6875 C13.5,24.8655 14.1705,24.1995 15,24.1995 C15.828,24.1995 16.5,24.8655 16.5,25.6875 C16.5,26.5095 15.828,27.1755 15,27.1755 C14.1705,27.1755 13.5,26.5095 13.5,25.6875 L13.5,25.6875 Z M13.5,13.6875 C13.5,12.786 14.127,12.0555 14.901,12.0555 L27.099,12.051 C27.873,12.051 28.5,12.7815 28.5,13.6845 L28.5,21.051 C28.5,21.9525 27.873,22.6845 27.099,22.6845 L14.901,22.6875 C14.127,22.6875 13.5,21.957 13.5,21.054 L13.5,13.6875 Z M28.419,9.1875 L13.581,9.1905 C11.8785,9.1905 10.5,10.5705 10.5,12.2715 L10.5,27.1065 C10.5,28.8075 11.8785,30.1875 13.581,30.1875 L13.9425,30.1875 L13.9425,31.8165 C13.9425,32.571 14.7405,33.1875 15.717,33.1875 C16.6905,33.1875 17.4885,32.571 17.4885,31.8165 L17.4885,30.1875 L24.003,30.1845 C24,30.7425 23.997,31.665 24.0045,31.8855 C24.036,32.628 24.9255,33.213 25.8765,33.186 C26.829,33.159 27.5505,32.532 27.5505,31.788 L27.5505,30.1845 L28.419,30.1845 C30.12,30.1845 31.5,28.8045 31.5,27.1035 L31.5,12.2685 C31.5,10.566 30.12,9.1875 28.419,9.1875 L28.419,9.1875 Z" id="Fill-1" fill="#FFFFFF"></path>
            </g>
        </g>
    </g>
</svg>