<?xml version="1.0" encoding="UTF-8"?>
<svg width="42px" height="42px" viewBox="0 0 42 42" version="1.1" xmlns="http://www.w3.org/2000/svg" xmlns:xlink="http://www.w3.org/1999/xlink">
    <title>Icon / Categorias 32px / Pagos</title>
    <defs>
        <linearGradient x1="50%" y1="97.3717486%" x2="50%" y2="2.81421239%" id="linearGradient-1">
            <stop stop-color="#B8DF96" offset="0%"></stop>
            <stop stop-color="#7FBE48" offset="100%"></stop>
        </linearGradient>
    </defs>
    <g id="Page-1" stroke="none" stroke-width="1" fill="none" fill-rule="evenodd">
        <g id="Análisis-de-Gastos---Desktop-" transform="translate(-350.000000, -1372.000000)">
            <g id="Icon-/-Categorias-32px-/-Pagos" transform="translate(350.000000, 1372.000000)">
                <path d="M10,0 L32,0 C37.5228475,-1.01453063e-15 42,4.4771525 42,10 L42,32 C42,37.5228475 37.5228475,42 32,42 L10,42 C4.4771525,42 6.76353751e-16,37.5228475 0,32 L0,10 C-6.76353751e-16,4.4771525 4.4771525,1.01453063e-15 10,0 Z" id="Rectangle-10-Copy-13" fill="url(#linearGradient-1)"></path>
                <path d="M18.9711434,22.3649495 C20.1247967,22.7365157 21.7054515,23.2444228 21.7054515,24.9014885 C21.7054515,25.8723551 20.9188697,26.8911658 19.4475872,27.154858 L19.4475872,27.5863543 C19.4475872,27.9998716 19.1134772,28.3354798 18.6984617,28.3354798 C18.2849444,28.3354798 17.9493362,27.9998716 17.9493362,27.5863543 L17.9493362,27.1593528 C16.2548143,26.8686921 15.7529002,25.644621 15.7289282,25.5861892 C15.5776048,25.2011387 15.7693809,24.7666459 16.1544315,24.6168208 C16.539482,24.4669957 16.9739748,24.6572736 17.1252981,25.0423241 C17.1492701,25.0947628 17.4743906,25.7255265 18.6984617,25.7255265 C19.7397462,25.7255265 20.2072005,25.2430897 20.2072005,24.9014885 C20.2072005,24.4220481 19.7622199,24.194314 18.5111803,23.7912845 C17.3260638,23.4107287 15.7019597,22.8893373 15.7019597,21.1543627 C15.7019597,19.8269123 16.7657179,19.103257 17.9493362,18.8905054 L17.9493362,18.4095668 C17.9493362,17.9960495 18.2849444,17.6604413 18.6984617,17.6604413 C19.1134772,17.6604413 19.4475872,17.9960495 19.4475872,18.4095668 L19.4475872,18.8860106 C20.8124939,19.1317238 21.5181701,19.9752391 21.5526299,20.0171901 C21.8118273,20.3378159 21.762385,20.8097649 21.4402611,21.0704606 C21.1211336,21.3281598 20.6551775,21.2802157 20.3929836,20.9640848 C20.3615203,20.9281268 19.810164,20.3138438 18.6984617,20.3138438 C18.6370334,20.3138438 17.2002107,20.3228333 17.2002107,21.1543627 C17.2002107,21.699726 17.6646685,21.9454392 18.9711434,22.3649495 M23.2171868,10.5002997 L23.2171868,16.1816675 C23.2171868,16.9502703 23.844954,17.5765392 24.6165532,17.5765392 L24.6165532,17.5765392 L30.1870505,17.5765392 L30.1870505,29.6074949 C30.1870505,30.7042147 29.3315492,31.5941758 28.2767805,31.5941758 L28.2767805,31.5941758 L13.7227701,31.5941758 C12.6680013,31.5941758 11.8125,30.7042147 11.8125,29.6074949 L11.8125,29.6074949 L11.8125,12.4869805 C11.8125,11.3887625 12.6680013,10.5002997 13.7227701,10.5002997 L13.7227701,10.5002997 L23.2171868,10.5002997 Z M24.9511127,10.5 L30.1875,15.7723453 L30.1875,16.0884763 L24.7158873,16.1828661 L24.7158873,10.5 L24.9511127,10.5 Z" id="Fill-2" fill="#FFFFFF"></path>
            </g>
        </g>
    </g>
</svg>