<?xml version="1.0" encoding="UTF-8"?>
<svg width="42px" height="42px" viewBox="0 0 42 42" version="1.1" xmlns="http://www.w3.org/2000/svg" xmlns:xlink="http://www.w3.org/1999/xlink">
    <title>Icon / Categorias 32px / Supermercado</title>
    <defs>
        <linearGradient x1="50%" y1="100%" x2="50%" y2="1.5670159%" id="linearGradient-1">
            <stop stop-color="#FAC9B4" offset="0%"></stop>
            <stop stop-color="#FEAA95" offset="100%"></stop>
        </linearGradient>
        <linearGradient x1="50%" y1="1.5670159%" x2="50%" y2="100%" id="linearGradient-2">
            <stop stop-color="#E8673F" offset="0%"></stop>
            <stop stop-color="#FAA791" offset="100%"></stop>
        </linearGradient>
    </defs>
    <g id="Page-1" stroke="none" stroke-width="1" fill="none" fill-rule="evenodd">
        <g id="Análisis-de-Gastos---Desktop-" transform="translate(-604.000000, -1372.000000)">
            <g id="Icon-/-Categorias-32px-/-Supermercado" transform="translate(604.000000, 1372.000000)">
                <g id="COLOR-/-CATEGORIA-/-COMIDA">
                    <path d="M10,0 L32,0 C37.5228475,-1.01453063e-15 42,4.4771525 42,10 L42,32 C42,37.5228475 37.5228475,42 32,42 L10,42 C4.4771525,42 6.76353751e-16,37.5228475 0,32 L0,10 C-6.76353751e-16,4.4771525 4.4771525,1.01453063e-15 10,0 Z" id="Rectangle-10-Copy-13" fill="url(#linearGradient-1)"></path>
                    <path d="M10,0 L32,0 C37.5228475,-1.01453063e-15 42,4.4771525 42,10 L42,32 C42,37.5228475 37.5228475,42 32,42 L10,42 C4.4771525,42 6.76353751e-16,37.5228475 0,32 L0,10 C-6.76353751e-16,4.4771525 4.4771525,1.01453063e-15 10,0 Z" id="Rectangle-10-Copy-13" fill="url(#linearGradient-2)"></path>
                </g>
                <path d="M18.0122895,28.9531759 C18.9053535,28.9531759 19.6281571,29.6759795 19.6281571,30.5690435 C19.6281571,31.4605013 18.9053535,32.1833049 18.0122895,32.1833049 C17.1208317,32.1833049 16.3980281,31.4605013 16.3980281,30.5690435 C16.3980281,29.6759795 17.1208317,28.9531759 18.0122895,28.9531759 Z M27.6686243,28.9531759 C28.5600821,28.9531759 29.2828857,29.6759795 29.2828857,30.5690435 C29.2828857,31.4605013 28.5600821,32.1833049 27.6686243,32.1833049 C26.7755603,32.1833049 26.0527567,31.4605013 26.0527567,30.5690435 C26.0527567,29.6759795 26.7755603,28.9531759 27.6686243,28.9531759 Z M12.1654508,10.5 C13.3074805,10.5 14.2615813,11.3191774 14.4318417,12.4499635 L14.4318417,12.4499635 L14.7016884,13.7333414 C14.7370254,13.7285227 14.7723625,13.7124604 14.8093058,13.7124604 L14.8093058,13.7124604 L29.9319633,13.7124604 C30.8989139,13.7124604 31.7518222,14.1075931 32.273847,14.7982721 C32.797478,15.4889511 32.9484637,16.4189584 32.6866481,17.3489657 L32.6866481,17.3489657 L31.6699044,20.9694086 C31.276378,22.3700413 29.9833627,23.3498418 28.5281181,23.3498418 L28.5281181,23.3498418 L16.7175073,23.3498418 L16.9231047,24.328036 C16.980929,24.7055001 17.2716567,24.956072 17.6073588,24.956072 L17.6073588,24.956072 L29.2653778,24.956072 C29.7086973,24.956072 30.0684929,25.3142613 30.0684929,25.7591871 C30.0684929,26.2025066 29.7086973,26.5623022 29.2653778,26.5623022 L29.2653778,26.5623022 L17.6073588,26.5623022 C16.4829977,26.5623022 15.5080159,25.7222438 15.3441804,24.6107325 L15.3441804,24.6107325 L12.8513111,12.7342662 C12.7918806,12.3519834 12.5075779,12.1062302 12.1654508,12.1062302 L12.1654508,12.1062302 L9.99061511,12.1062302 C9.54729557,12.1062302 9.1875,11.7464347 9.1875,11.3031151 C9.1875,10.8581893 9.54729557,10.5 9.99061511,10.5 L9.99061511,10.5 Z" id="Combined-Shape" fill="#FFFFFF"></path>
            </g>
        </g>
    </g>
</svg>