<?xml version="1.0" encoding="UTF-8"?>
<svg width="42px" height="42px" viewBox="0 0 42 42" version="1.1" xmlns="http://www.w3.org/2000/svg" xmlns:xlink="http://www.w3.org/1999/xlink">
    <title>Icon / Categorias 32px / Compras</title>
    <defs>
        <linearGradient x1="50%" y1="-2.08166817e-15%" x2="50%" y2="109.978056%" id="linearGradient-1">
            <stop stop-color="#9293FE" offset="0%"></stop>
            <stop stop-color="#A7A7FB" offset="100%"></stop>
        </linearGradient>
        <linearGradient x1="50%" y1="3.57433165%" x2="50%" y2="98.0383055%" id="linearGradient-2">
            <stop stop-color="#F098EB" offset="0%"></stop>
            <stop stop-color="#F7B9F4" offset="100%"></stop>
        </linearGradient>
    </defs>
    <g id="Page-1" stroke="none" stroke-width="1" fill="none" fill-rule="evenodd">
        <g id="Análisis-de-Gastos---Desktop-" transform="translate(-224.000000, -1247.000000)">
            <g id="Icon-/-Categorias-32px-/-Compras" transform="translate(224.000000, 1247.000000)">
                <g id="COLOR-/-CATEGORIA-/-COMIDA">
                    <path d="M10,0 L32,0 C37.5228475,-1.01453063e-15 42,4.4771525 42,10 L42,32 C42,37.5228475 37.5228475,42 32,42 L10,42 C4.4771525,42 6.76353751e-16,37.5228475 0,32 L0,10 C-6.76353751e-16,4.4771525 4.4771525,1.01453063e-15 10,0 Z" id="Rectangle-10-Copy-13" fill="url(#linearGradient-1)"></path>
                    <path d="M10,0 L32,0 C37.5228475,-1.01453063e-15 42,4.4771525 42,10 L42,32 C42,37.5228475 37.5228475,42 32,42 L10,42 C4.4771525,42 6.76353751e-16,37.5228475 0,32 L0,10 C-6.76353751e-16,4.4771525 4.4771525,1.01453063e-15 10,0 Z" id="Rectangle-10-Copy-13" fill="url(#linearGradient-2)"></path>
                </g>
                <path d="M16.2421875,14.9296875 C16.2421875,12.6689062 18.0813281,10.828125 20.34375,10.828125 C22.6061719,10.828125 24.4453125,12.6689062 24.4453125,14.9296875 L16.2421875,14.9296875 Z M20.34375,9.1875 C23.5101563,9.1875 26.0859375,11.7632812 26.0859375,14.9296875 L26.0859375,14.9296875 L27.4296094,14.9296875 C28.9521094,14.9296875 30.1875,16.1634375 30.1875,17.6875781 L30.1875,17.6875781 L30.1875,30.2186719 C30.1875,31.7428125 28.9521094,32.9765625 27.4296094,32.9765625 L27.4296094,32.9765625 L13.2578906,32.9765625 C11.7353906,32.9765625 10.5,31.7428125 10.5,30.2186719 L10.5,30.2186719 L10.5,17.6875781 C10.5,16.1634375 11.7353906,14.9296875 13.2578906,14.9296875 L13.2578906,14.9296875 L14.6015625,14.9296875 C14.6015625,11.7632812 17.1773437,9.1875 20.34375,9.1875 Z M24.4453125,19.03125 L16.2421875,19.03125 C15.7891414,19.03125 15.421875,19.3985164 15.421875,19.8515625 C15.421875,20.3046086 15.7891414,20.671875 16.2421875,20.671875 L16.2421875,20.671875 L24.4453125,20.671875 C24.8983586,20.671875 25.265625,20.3046086 25.265625,19.8515625 C25.265625,19.3985164 24.8983586,19.03125 24.4453125,19.03125 L24.4453125,19.03125 Z" id="Fill-1" fill="#FFFFFF"></path>
            </g>
        </g>
    </g>
</svg>