<?xml version="1.0" encoding="UTF-8"?>
<svg width="42px" height="42px" viewBox="0 0 42 42" version="1.1" xmlns="http://www.w3.org/2000/svg" xmlns:xlink="http://www.w3.org/1999/xlink">
    <title>Icon / Categorias 32px / Deportes</title>
    <defs>
        <linearGradient x1="50%" y1="100%" x2="50%" y2="0%" id="linearGradient-1">
            <stop stop-color="#9BD7C4" offset="0%"></stop>
            <stop stop-color="#63B99E" offset="100%"></stop>
        </linearGradient>
        <linearGradient x1="50%" y1="97.4710983%" x2="50%" y2="5.19157893%" id="linearGradient-2">
            <stop stop-color="#72EAC2" offset="0%"></stop>
            <stop stop-color="#36C9B0" offset="100%"></stop>
        </linearGradient>
    </defs>
    <g id="Page-1" stroke="none" stroke-width="1" fill="none" fill-rule="evenodd">
        <g id="Análisis-de-Gastos---Desktop-" transform="translate(-223.000000, -1372.000000)">
            <g id="Icon-/-Categorias-32px-/-Deportes" transform="translate(223.000000, 1372.000000)">
                <g id="COLOR-/-CATEGORIA-/-COMIDA">
                    <path d="M10,0 L32,0 C37.5228475,-1.01453063e-15 42,4.4771525 42,10 L42,32 C42,37.5228475 37.5228475,42 32,42 L10,42 C4.4771525,42 6.76353751e-16,37.5228475 0,32 L0,10 C-6.76353751e-16,4.4771525 4.4771525,1.01453063e-15 10,0 Z" id="Rectangle-10-Copy-13" fill="url(#linearGradient-1)"></path>
                    <path d="M10,0 L32,0 C37.5228475,-1.01453063e-15 42,4.4771525 42,10 L42,32 C42,37.5228475 37.5228475,42 32,42 L10,42 C4.4771525,42 6.76353751e-16,37.5228475 0,32 L0,10 C-6.76353751e-16,4.4771525 4.4771525,1.01453063e-15 10,0 Z" id="Rectangle-10-Copy-13" fill="url(#linearGradient-2)"></path>
                </g>
                <g id="Group" transform="translate(9.187500, 9.187500)" fill="#FFFFFF">
                    <path d="M5.87793019,11.0254745 C5.31496314,11.6885767 4.32103767,11.7697522 3.6579355,11.2067852 C2.99483333,10.6438181 2.91365777,9.64989267 3.47662481,8.9867905 L6.12419981,5.8682905 C6.50825944,5.41591806 7.11398317,5.21781163 7.69112943,5.35581456 L13.4414544,6.73078956 C13.5726769,6.7621665 13.6993237,6.81027477 13.8182839,6.87393262 L17.9481134,9.08388305 L19.7582669,6.79189006 C20.2973893,6.10926027 21.2878152,5.99292454 21.9704449,6.53204693 C22.6530747,7.07116932 22.7694105,8.06159515 22.2302881,8.74422494 L19.6031881,12.0706249 C19.1304159,12.6692429 18.2966267,12.8430297 17.6240711,12.4831324 L12.511251,9.74716495 L7.89942246,8.64441876 L5.87793019,11.0254745 Z" id="Stroke-1" fill-rule="nonzero"></path>
                    <path d="M5.98007653,15.4455525 L11.7961842,7.34350468 C12.3034428,6.63687524 13.2874934,6.47525319 13.9941228,6.98251172 C14.7007523,7.48977026 14.8623743,8.47382089 14.3551158,9.18045032 L8.06771578,17.9390253 C7.77185892,18.3511646 7.29558624,18.5955525 6.78825,18.5955525 L1.575,18.5955525 C0.705151519,18.5955525 0,17.890401 0,17.0205525 C0,16.150704 0.705151519,15.4455525 1.575,15.4455525 L5.98007653,15.4455525 Z" id="Stroke-3" fill-rule="nonzero"></path>
                    <path d="M9.74359712,15.9121714 C8.95884943,15.5369282 8.62688043,14.5965698 9.00212361,13.8118221 C9.37736679,13.0270744 10.3177252,12.6951054 11.1024729,13.0703486 L16.4054979,15.6060986 C17.2543828,16.0120103 17.5602931,17.0668097 17.060305,17.8639182 L13.551205,23.4583182 C13.0889934,24.1952013 12.116935,24.4178666 11.3800518,23.955655 C10.6431687,23.4934434 10.4205034,22.521385 10.882715,21.7845018 L13.453441,17.6861092 L9.74359712,15.9121714 Z" id="Stroke-5" fill-rule="nonzero"></path>
                    <path d="M12.4476975,2.3625 C12.4476975,3.668175 13.5060975,4.725 14.8101975,4.725 C16.1142975,4.725 17.1726975,3.668175 17.1726975,2.3625 C17.1726975,1.0584 16.1142975,0 14.8101975,0 C13.5060975,0 12.4476975,1.0584 12.4476975,2.3625" id="Fill-7"></path>
                </g>
            </g>
        </g>
    </g>
</svg>