<?xml version="1.0" encoding="UTF-8"?>
<svg width="42px" height="42px" viewBox="0 0 42 42" version="1.1" xmlns="http://www.w3.org/2000/svg" xmlns:xlink="http://www.w3.org/1999/xlink">
    <title>Icon / Categorias 32px / Sin Categorías</title>
    <defs>
        <linearGradient x1="50%" y1="-2.48949813e-15%" x2="50%" y2="96.1614884%" id="linearGradient-1">
            <stop stop-color="#F1C46B" offset="0%"></stop>
            <stop stop-color="#F8D796" offset="100%"></stop>
        </linearGradient>
    </defs>
    <g id="Page-1" stroke="none" stroke-width="1" fill="none" fill-rule="evenodd">
        <g id="Análisis-de-Gastos---Desktop-" transform="translate(-477.000000, -1372.000000)">
            <g id="Icon-/-Categorias-32px-/-Sin-Categorías" transform="translate(477.000000, 1372.000000)">
                <g id="COLOR-/-CATEGORIA-/-COMIDA" fill="url(#linearGradient-1)">
                    <path d="M10,0 L32,0 C37.5228475,-1.01453063e-15 42,4.4771525 42,10 L42,32 C42,37.5228475 37.5228475,42 32,42 L10,42 C4.4771525,42 6.76353751e-16,37.5228475 0,32 L0,10 C-6.76353751e-16,4.4771525 4.4771525,1.01453063e-15 10,0 Z" id="Rectangle-10-Copy-13"></path>
                </g>
                <path d="M24.928041,26.9585191 C25.2770014,27.3074115 25.2770014,27.8745853 24.928041,28.2234777 C24.752666,28.3988185 24.5236049,28.4864889 24.2945437,28.4864889 C24.0672721,28.4864889 23.8382109,28.3988185 23.662836,28.2234777 L21,25.5611604 L18.337164,28.2234777 C18.1635786,28.3988185 17.9345174,28.4864889 17.7054563,28.4864889 C17.4763951,28.4864889 17.247334,28.3988185 17.071959,28.2234777 C16.7229986,27.8745853 16.7229986,27.3074115 17.071959,26.9585191 L19.734795,24.2962018 L17.071959,21.6338845 C16.7229986,21.2849921 16.7229986,20.7196075 17.071959,20.3689259 C17.4227089,20.0200335 17.9882036,20.0200335 18.337164,20.3689259 L21,23.0312432 L23.662836,20.3689259 C24.0117964,20.0200335 24.5790806,20.0200335 24.928041,20.3689259 C25.2770014,20.7196075 25.2770014,21.2849921 24.928041,21.6338845 L22.265205,24.2962018 L24.928041,26.9585191 Z M21.109162,11.4891673 C22.0289857,11.4891673 22.7734345,12.2334711 22.7734345,13.1531156 C22.7734345,14.0727602 22.0289857,14.817064 21.109162,14.817064 C20.1893382,14.817064 19.4448895,14.0727602 19.4448895,13.1531156 C19.4448895,12.2334711 20.1893382,11.4891673 21.109162,11.4891673 L21.109162,11.4891673 Z M29.8886468,15.199951 L27.4852941,9.86458122 C26.9394843,8.6550876 25.7351237,7.875 24.4072848,7.875 L17.5927152,7.875 C16.2648763,7.875 15.0605157,8.6550876 14.5164954,9.86458122 L12.1095637,15.199951 C11.9145038,15.6347246 11.8125,16.1088604 11.8125,16.5865746 L11.8125,31.2436333 C11.8125,32.1901158 12.5802128,32.9594682 13.5286692,32.9594682 L28.4713308,32.9594682 C29.4197872,32.9594682 30.1875,32.1901158 30.1875,31.2436333 L30.1875,16.5865746 C30.1875,16.1088604 30.0872857,15.6347246 29.8886468,15.199951 L29.8886468,15.199951 Z" id="Fill-1" fill="#FFFFFF"></path>
            </g>
        </g>
    </g>
</svg>